<svg width="23" height="23" viewBox="0 0 23 23" fill="none" xmlns="http://www.w3.org/2000/svg">
<path d="M9.375 7.26565C9.37523 7.14077 9.40873 7.0182 9.47203 6.91055C9.53534 6.8029 9.62617 6.71405 9.7352 6.65314C9.84422 6.59223 9.9675 6.56146 10.0924 6.56399C10.2172 6.56652 10.3392 6.60225 10.4456 6.66753L13.8806 8.77597C13.983 8.83887 14.0675 8.92697 14.1262 9.03184C14.1848 9.13672 14.2156 9.25487 14.2156 9.37503C14.2156 9.49519 14.1848 9.61334 14.1262 9.71821C14.0675 9.82309 13.983 9.91118 13.8806 9.97409L10.4456 12.0835C10.339 12.1488 10.2169 12.1846 10.0919 12.187C9.96687 12.1895 9.84346 12.1585 9.73438 12.0974C9.6253 12.0363 9.53449 11.9471 9.47132 11.8392C9.40815 11.7313 9.3749 11.6085 9.375 11.4835V7.26565Z" stroke="#F04E23" stroke-width="1.875" stroke-linecap="round" stroke-linejoin="round"/>
<path d="M11.25 15.9375V19.6875" stroke="#F04E23" stroke-width="1.875" stroke-linecap="round" stroke-linejoin="round"/>
<path d="M7.5 19.6875H15" stroke="#F04E23" stroke-width="1.875" stroke-linecap="round" stroke-linejoin="round"/>
<path d="M18.75 2.8125H3.75C2.71447 2.8125 1.875 3.65197 1.875 4.6875V14.0625C1.875 15.098 2.71447 15.9375 3.75 15.9375H18.75C19.7855 15.9375 20.625 15.098 20.625 14.0625V4.6875C20.625 3.65197 19.7855 2.8125 18.75 2.8125Z" stroke="#F04E23" stroke-width="1.875" stroke-linecap="round" stroke-linejoin="round"/>
</svg>
