<svg width="18" height="18" viewBox="0 0 18 18" fill="none" xmlns="http://www.w3.org/2000/svg">
<g clip-path="url(#clip0_4_739)">
<path d="M9.61896 1.63449C9.42361 1.54538 9.21141 1.49927 8.99669 1.49927C8.78198 1.49927 8.56977 1.54538 8.37443 1.63449L1.94932 4.5584C1.81628 4.61706 1.70317 4.71314 1.62376 4.83494C1.54435 4.95673 1.50208 5.09899 1.50208 5.24439C1.50208 5.38979 1.54435 5.53205 1.62376 5.65385C1.70317 5.77564 1.81628 5.87172 1.94932 5.93039L8.38192 8.86179C8.57727 8.9509 8.78948 8.99701 9.00419 8.99701C9.2189 8.99701 9.43111 8.9509 9.62646 8.86179L16.0591 5.93788C16.1921 5.87922 16.3052 5.78314 16.3846 5.66134C16.464 5.53955 16.5063 5.39729 16.5063 5.25189C16.5063 5.10649 16.464 4.96423 16.3846 4.84243C16.3052 4.72063 16.1921 4.62455 16.0591 4.56589L9.61896 1.63449Z" stroke="white" stroke-width="1.49944" stroke-linecap="round" stroke-linejoin="round"/>
<path d="M1.49939 8.99658C1.49904 9.13998 1.53981 9.28047 1.61689 9.40139C1.69396 9.52232 1.80409 9.6186 1.93423 9.67883L8.38183 12.6102C8.57616 12.6982 8.78703 12.7438 9.00035 12.7438C9.21367 12.7438 9.42454 12.6982 9.61887 12.6102L16.0515 9.68633C16.1842 9.62668 16.2967 9.5297 16.3752 9.40723C16.4537 9.28476 16.495 9.14207 16.4938 8.99658" stroke="white" stroke-width="1.49944" stroke-linecap="round" stroke-linejoin="round"/>
<path d="M1.49939 12.7454C1.49904 12.8888 1.53981 13.0292 1.61689 13.1502C1.69396 13.2711 1.80409 13.3674 1.93423 13.4276L8.38183 16.359C8.57616 16.447 8.78703 16.4925 9.00035 16.4925C9.21367 16.4925 9.42454 16.447 9.61887 16.359L16.0515 13.4351C16.1842 13.3755 16.2967 13.2785 16.3752 13.156C16.4537 13.0335 16.495 12.8909 16.4938 12.7454" stroke="white" stroke-width="1.49944" stroke-linecap="round" stroke-linejoin="round"/>
</g>
<defs>
<clipPath id="clip0_4_739">
<rect width="17.9933" height="17.9933" fill="white"/>
</clipPath>
</defs>
</svg>
