<svg width="18" height="18" viewBox="0 0 18 18" fill="none" xmlns="http://www.w3.org/2000/svg">
<path d="M7.5 5.81249C7.50019 5.71258 7.52698 5.61452 7.57762 5.5284C7.62827 5.44228 7.70094 5.3712 7.78816 5.32247C7.87538 5.27375 7.974 5.24913 8.07389 5.25115C8.17378 5.25318 8.27132 5.28177 8.3565 5.33399L11.1045 7.02074C11.1864 7.07106 11.254 7.14154 11.301 7.22544C11.3479 7.30934 11.3725 7.40386 11.3725 7.49999C11.3725 7.59611 11.3479 7.69064 11.301 7.77453C11.254 7.85843 11.1864 7.92891 11.1045 7.97924L8.3565 9.66674C8.27122 9.71902 8.17353 9.74762 8.07352 9.74958C7.9735 9.75154 7.87477 9.72679 7.7875 9.67788C7.70024 9.62897 7.62759 9.55768 7.57706 9.47135C7.52652 9.38502 7.49992 9.28677 7.5 9.18674V5.81249Z" stroke="#111111" stroke-width="1.5" stroke-linecap="round" stroke-linejoin="round"/>
<path d="M9 12.75V15.75" stroke="#111111" stroke-width="1.5" stroke-linecap="round" stroke-linejoin="round"/>
<path d="M6 15.75H12" stroke="#111111" stroke-width="1.5" stroke-linecap="round" stroke-linejoin="round"/>
<path d="M15 2.25H3C2.17157 2.25 1.5 2.92157 1.5 3.75V11.25C1.5 12.0784 2.17157 12.75 3 12.75H15C15.8284 12.75 16.5 12.0784 16.5 11.25V3.75C16.5 2.92157 15.8284 2.25 15 2.25Z" stroke="#111111" stroke-width="1.5" stroke-linecap="round" stroke-linejoin="round"/>
</svg>
